<svg xmlns="http://www.w3.org/2000/svg" viewBox="0 0 422.89 375.00" data-guides="{&quot;vertical&quot;:[],&quot;horizontal&quot;:[]}"><defs/><path fill="#141415" fill-opacity="1" stroke="" stroke-opacity="0" stroke-width="1" id="tSvg11f3b823d70" title="Rectangle 1" d="M67.4443 174H167.4443V374H67.4443Z" style="transform-origin: 117.444px 274px;"/><path fill="#141415" stroke="" fill-opacity="1" stroke-width="1" stroke-opacity="0" title="Rectangle 2" d="M249.4443 174C249.4443 174 249.4443 174 249.4443 174H349.4443C349.4443 174 349.4443 174 349.4443 174V374C349.4443 374 349.4443 374 349.4443 374H249.4443C249.4443 374 249.4443 374 249.4443 374Z" rx="0" ry="0" id="tSvg6b89a6e7a5"/><path fill="#141415" fill-opacity="1" stroke="" stroke-opacity="0" stroke-width="1" id="tSvg12d20d4dbe1" d="M211.4443 1L421.8885 205.75H1.0002Z" title="Polygon 1"/><path fill="#141415" stroke="none" fill-opacity="1" stroke-width="1" stroke-opacity="1" id="tSvg21728e0dc6" title="Path 1" d="M161.4443 116C161.4443 116 161.4443 116 161.4443 116H261.4443C261.4443 116 261.4443 116 261.4443 116V261C261.4443 261 261.4443 261 261.4443 261H161.4443C161.4443 261 161.4443 261 161.4443 261Z" style=""/></svg>